<?xml version="1.0" encoding="UTF-8" standalone="no"?>
<!-- Created with Inkscape (http://www.inkscape.org/) -->

<svg
   xmlns:dc="http://purl.org/dc/elements/1.1/"
   xmlns:cc="http://creativecommons.org/ns#"
   xmlns:rdf="http://www.w3.org/1999/02/22-rdf-syntax-ns#"
   xmlns:svg="http://www.w3.org/2000/svg"
   xmlns="http://www.w3.org/2000/svg"
   xmlns:sodipodi="http://sodipodi.sourceforge.net/DTD/sodipodi-0.dtd"
   xmlns:inkscape="http://www.inkscape.org/namespaces/inkscape"
   width="404.56503"
   height="401.57672"
   viewBox="0 0 107.04116 106.25051"
   version="1.1"
   id="svg8"
   inkscape:version="0.92.3 (2405546, 2018-03-11)"
   sodipodi:docname="logo.svg">
  <defs
     id="defs2" />
  <sodipodi:namedview
     id="base"
     pagecolor="#ffffff"
     bordercolor="#666666"
     borderopacity="1.0"
     inkscape:pageopacity="0.0"
     inkscape:pageshadow="2"
     inkscape:zoom="0.98994949"
     inkscape:cx="569.38555"
     inkscape:cy="150.71992"
     inkscape:document-units="mm"
     inkscape:current-layer="layer1"
     showgrid="false"
     units="px"
     fit-margin-top="0"
     fit-margin-left="0"
     fit-margin-right="0"
     fit-margin-bottom="0"
     inkscape:pagecheckerboard="true"
     showborder="false"
     inkscape:window-width="1920"
     inkscape:window-height="1017"
     inkscape:window-x="-8"
     inkscape:window-y="-8"
     inkscape:window-maximized="1" />
  <metadata
     id="metadata5">
    <rdf:RDF>
      <cc:Work
         rdf:about="">
        <dc:format>image/svg+xml</dc:format>
        <dc:type
           rdf:resource="http://purl.org/dc/dcmitype/StillImage" />
        <dc:title></dc:title>
      </cc:Work>
    </rdf:RDF>
  </metadata>
  <g
     inkscape:label="Layer 1"
     inkscape:groupmode="layer"
     id="layer1"
     transform="translate(-1.011356,-167.98576)">
    <g
       id="g3727"
       transform="matrix(6.3482681,0,0,6.3482681,1.0113562,167.98576)">
      <g
         transform="translate(-107.14523,-147.77523)"
         style="display:inline"
         id="layer1-1"
         inkscape:label="Layer 1" />
      <g
         transform="translate(-71.326225,-59.65708)"
         style="display:inline"
         inkscape:label="Layer 2"
         id="layer3" />
      <g
         transform="matrix(0.08510924,0,0,0.08510924,2.0634062,2.6011271)"
         id="g893">
        <ellipse
           style="display:inline;fill:#000000;fill-opacity:1;stroke:#fe1b00;stroke-width:4;stroke-miterlimit:4;stroke-dasharray:none;stroke-dashoffset:0;stroke-opacity:1"
           id="path875"
           cx="74.813629"
           cy="67.763931"
           rx="97.057838"
           ry="96.326149" />
        <path
           style="fill:#ff0000;fill-opacity:1;stroke:#000000;stroke-width:0;stroke-linecap:butt;stroke-linejoin:miter;stroke-miterlimit:4;stroke-dasharray:none;stroke-dashoffset:0;stroke-opacity:1"
           d="m 28.719289,51.045012 c 0,0 6.949652,-20.849059 17.808545,-24.323902 10.858881,-3.474841 42.56677,-1.520242 48.647716,-4.126352 6.08097,-2.606093 20.63183,-10.207279 25.62691,-15.4196165 4.99508,-5.2121802 -7.60117,16.9398755 -11.07599,20.4147015 -3.47484,3.474858 -12.575962,5.812877 -15.182087,5.812877 -2.606115,0 -28.904949,1.571197 -32.379759,5.263158 -3.474888,3.691954 -13.682201,11.727641 -1.737449,15.202357 11.94476,3.474983 22.369278,6.515435 27.364354,4.560836 4.99506,-1.9546 12.813471,-8.469902 16.071141,-13.89936 l 3.25764,-5.429458 c 0,0 -1.30304,34.31407 -11.076049,37.354538 -9.772966,3.040471 -33.445334,-10.641788 -35.617086,-12.379142 -2.171798,-1.737354 -13.464981,8.252805 -7.38405,13.46501 6.080975,5.212217 14.985259,12.596245 14.985259,12.596245 0,0 -7.384041,1.085606 -8.252726,2.823364 -0.868747,1.73736 -1.303075,3.909211 0.651493,4.995071 1.954593,1.08561 41.769769,2.442171 48.502279,-2.770301 6.73258,-5.212202 15.99952,-23.073964 17.30248,-32.412637 1.30313,-9.33854 1.52025,-9.555778 1.52025,-9.555778 0,0 2.60611,48.864937 -12.16189,54.511487 -14.76814,5.64671 -95.867966,4.67096 -95.867966,4.67096 0,0 17.249697,-11.62064 18.769926,-14.661121 1.520246,-3.040461 3.692021,-5.863679 1.737433,-8.25266 -1.954603,-2.388981 -18.677252,-6.73257 -18.677252,-6.73257 0,0 18.025707,-11.510393 20.414638,-14.550861 2.388962,-3.040475 4.777909,-3.691961 1.954603,-6.51531 C 41.09838,58.863319 28.719258,51.044887 28.719258,51.044887 Z"
           id="path862"
           inkscape:connector-curvature="0"
           sodipodi:nodetypes="cscccsccccccccccccccccccccccc" />
      </g>
    </g>
  </g>
</svg>
